<svg id="build-24px" xmlns="http://www.w3.org/2000/svg" width="100" height="99.86" viewBox="0 0 100 99.86">
  <path id="Path_6" data-name="Path 6" d="M0,0H100V99.86H0Z" fill="none"/>
  <path id="Path_7" data-name="Path 7" d="M91.557,75.579,53.641,37.716a26.678,26.678,0,0,0-6.25-28.71A27.573,27.573,0,0,0,16.557,3.6L34.474,21.489l-12.5,12.482L3.641,16.08A26.788,26.788,0,0,0,9.057,46.87a26.769,26.769,0,0,0,28.75,6.241L75.724,90.974a4.032,4.032,0,0,0,5.833,0l9.583-9.57C93.224,79.74,93.224,76.828,91.557,75.579Z" transform="translate(3.026 3.476)" fill="#393939"/>
</svg>
