<svg id="comment" xmlns="http://www.w3.org/2000/svg" width="100" height="90" viewBox="0 0 100 90">
  <path id="Path_173" data-name="Path 173" d="M99.2,75.242,93.315,60.187A42.3,42.3,0,0,0,96.116,45C96.123,20.187,74.562,0,48.063,0S0,20.187,0,45,21.561,90,48.063,90A50.569,50.569,0,0,0,75,82.243L86.82,86.575a12.857,12.857,0,0,0,4.431.839,8.775,8.775,0,0,0,7.173-3.382C99.461,82.656,100.933,79.672,99.2,75.242Zm-7.945,6.045a5.922,5.922,0,0,1-2.042-.423L74.035,75.3a43.112,43.112,0,0,1-25.972,8.569C25.131,83.869,6.545,66.468,6.545,45S25.131,6.127,48.063,6.127,89.582,23.529,89.582,45a36.622,36.622,0,0,1-3.256,15.116L93.063,77.35C94.012,79.786,93.207,81.287,91.257,81.287Z" transform="translate(0 0)" fill="#fcfcfc"/>
  <ellipse id="Ellipse_4" data-name="Ellipse 4" cx="5.317" cy="4.979" rx="5.317" ry="4.979" transform="translate(61.355 40.018)" fill="#fcfcfc"/>
  <ellipse id="Ellipse_5" data-name="Ellipse 5" cx="5.317" cy="4.979" rx="5.317" ry="4.979" transform="translate(41.721 40.018)" fill="#fcfcfc"/>
  <ellipse id="Ellipse_6" data-name="Ellipse 6" cx="5.317" cy="4.979" rx="5.317" ry="4.979" transform="translate(22.088 40.018)" fill="#fcfcfc"/>
</svg>
