<svg id="consultancy" xmlns="http://www.w3.org/2000/svg" width="100" height="99.865" viewBox="0 0 100 99.865">
  <path id="Path_8" data-name="Path 8" d="M0,0H100V99.865H0Z" fill="none"/>
  <path id="Path_9" data-name="Path 9" d="M91.667,3H8.333A8.352,8.352,0,0,0,0,11.322V69.577A8.352,8.352,0,0,0,8.333,77.9H91.667a8.317,8.317,0,0,0,8.292-8.322L100,11.322A8.352,8.352,0,0,0,91.667,3ZM33.333,15.483a12.483,12.483,0,1,1-12.5,12.483A12.475,12.475,0,0,1,33.333,15.483Zm25,49.933h-50V61.255c0-8.322,16.667-12.9,25-12.9s25,4.577,25,12.9ZM74.375,48.771h6.833L87.5,57.094l-8.292,8.28a31.255,31.255,0,0,1-11.375-16.6,30.265,30.265,0,0,1,0-16.644,31.1,31.1,0,0,1,11.375-16.6l8.292,8.28-6.292,8.322H74.375a24.474,24.474,0,0,0,0,16.644Z" transform="translate(0 9.483)" fill="#393939"/>
</svg>
