<svg xmlns="http://www.w3.org/2000/svg" width="100" height="90" viewBox="0 0 100 90">
  <g id="Crane_1_" transform="translate(-22.54 -43.078)">
    <g id="Group_29" data-name="Group 29" transform="translate(22.54 43.078)">
      <path id="Path_180" data-name="Path 180" d="M435.76,411.413a3.76,3.76,0,1,0,3.809,3.759A3.789,3.789,0,0,0,435.76,411.413Zm0,4.982A1.223,1.223,0,1,1,437,415.172,1.233,1.233,0,0,1,435.76,416.4Z" transform="translate(-344.268 -333.567)" fill="#fcfcfc"/>
      <path id="Path_181" data-name="Path 181" d="M207.724,411.413a3.76,3.76,0,1,0,3.809,3.759A3.789,3.789,0,0,0,207.724,411.413Zm0,4.982a1.223,1.223,0,1,1,1.239-1.223A1.233,1.233,0,0,1,207.724,416.4Z" transform="translate(-165.069 -333.567)" fill="#fcfcfc"/>
      <path id="Path_182" data-name="Path 182" d="M114.033,116.288H101.159v-2.682h14.159V91.9l-3.9-2.952V59.869h-1.973v-8.13h-7.819v8.13H84.018L74,76.407,42.419,46.39a5.331,5.331,0,0,0-1.3-1.855,5.488,5.488,0,0,0-4.035-1.448,2.973,2.973,0,0,0-.494.073L26.21,45.554a2.947,2.947,0,0,0-2.31,2.873V60.555h2.57V51.361l1.258.29V65.358h-4V79.621h2.628v1.45a5.043,5.043,0,1,0,6.385,4.871H30.17a2.53,2.53,0,1,1-2.53-2.5h1.285V79.621h2.628V65.358H30.3V52.243l6.3,1.452a2.956,2.956,0,0,0,.492.073q.157.009.315.009l.071,0L67.96,87.224v15.062H62.518v11.32h15.7v2.682H65.194a8.4,8.4,0,1,0,0,16.79h48.839a8.4,8.4,0,1,0,0-16.79Zm-2.612-24.139,1.327,1.005V111.07h-1.327ZM67.96,111.07H65.088v-6.248H67.96ZM104.2,54.275h2.679v1.8H104.2Zm0,4.337h2.679v1.257H104.2ZM28.983,77.085H26.3V67.894h2.686Zm8.254-25.849a.419.419,0,0,1-.059-.011L26.794,48.831a.413.413,0,0,1,0-.807L37.176,45.63a.486.486,0,0,1,.062-.011c.058,0,.115,0,.173,0a2.839,2.839,0,0,1,1.948.767,2.788,2.788,0,0,1,0,4.094A2.839,2.839,0,0,1,37.237,51.236ZM69.022,84.6,40.219,53a5.388,5.388,0,0,0,.9-.676,5.3,5.3,0,0,0,1.449-2.264l30.01,28.519ZM70.53,111.07v-1.635h6.884V106.9H70.53V87.087L85.476,62.4h23.375V106.9H80.646v2.536h28.205v1.635H70.53Zm28.059,2.536v2.682h-17.8v-2.682ZM65.194,130.542a5.859,5.859,0,1,1,5.937-5.859A5.905,5.905,0,0,1,65.194,130.542Zm6.085,0a8.478,8.478,0,0,0,1.056-1.3h34.557a8.466,8.466,0,0,0,1.056,1.3Zm3.873-3.84h-1.7a8.279,8.279,0,0,0-.028-4.146h1.729a4.539,4.539,0,0,0,0,4.146Zm2.069-2.073a2.1,2.1,0,1,1,2.1,2.073A2.09,2.09,0,0,1,77.221,124.628Zm6.271-2.073h1.952a4.539,4.539,0,0,0,0,4.147H83.492a4.539,4.539,0,0,0,0-4.147Zm4.021,2.073a2.1,2.1,0,1,1,2.1,2.073A2.09,2.09,0,0,1,87.513,124.628Zm6.27-2.073H95.6a4.539,4.539,0,0,0,0,4.147H93.783a4.537,4.537,0,0,0,0-4.147Zm3.887,2.073a2.1,2.1,0,1,1,2.1,2.073A2.09,2.09,0,0,1,97.67,124.628Zm6.271-2.073H105.8a8.279,8.279,0,0,0-.028,4.146h-1.835a4.539,4.539,0,0,0,0-4.146Zm3.022-2.536h-34.7a8.462,8.462,0,0,0-.985-1.195h36.67A8.479,8.479,0,0,0,106.963,120.019Zm7.07,10.523a5.859,5.859,0,1,1,5.937-5.859A5.905,5.905,0,0,1,114.033,130.542Z" transform="translate(-22.54 -43.078)" fill="#fcfcfc"/>
      <path id="Path_183" data-name="Path 183" d="M358.953,270.168h10.4v-7.117h-10.4Zm2.57-4.58h5.255v2.044h-5.255Z" transform="translate(-286.903 -216.561)" fill="#fcfcfc"/>
      <path id="Path_184" data-name="Path 184" d="M290.774,144.194h-17.72l-14.09,23.562h31.81ZM278.042,165.22H263.465l11.057-18.49h3.521Zm10.161,0h-7.591V146.73H288.2Z" transform="translate(-208.329 -122.824)" fill="#fcfcfc"/>
    </g>
  </g>
</svg>
