<svg xmlns="http://www.w3.org/2000/svg" width="41.941" height="51.948" viewBox="0 0 41.941 51.948">
  <g id="logo-idonu" transform="translate(0.903 1.075)" style="isolation: isolate">
    <g id="Group_20" data-name="Group 20">
      <g id="Group_1" data-name="Group 1">
        <path id="Path_2" data-name="Path 2" d="M4.515,37.232l16.507-4.022v-5.53L10.761,22.654a8.483,8.483,0,0,0,2.231-.5c.574-.235.892-.636.892-1.005L.5-.471c0-.369,13.09-6.8,12.492-7.038a8.493,8.493,0,0,0-2.231-.5L.5-9.017h0l20.523,36.7,19.631-36.7L30.838-8.011a8.384,8.384,0,0,0-2.231.5c-.621.243,12.046,8.7,12.046,9.049L27.715,21.146c0,.386.295.771.892,1.005a8.063,8.063,0,0,0,2.231.5l-9.815,5.027v5.53L37.53,37.232l3.123-12.065L20.13-13.038.5,25.167Z" transform="translate(-0.5 13.038)" fill="#fcfcfc" stroke="#fcfcfc" stroke-width="1"/>
      </g>
    </g>
  </g>
</svg>
