<svg xmlns="http://www.w3.org/2000/svg" width="100" height="90" viewBox="0 0 100 90">
  <g id="miu" transform="translate(-1 -4.5)">
    <g id="Artboard-1" transform="translate(1 4.5)">
      <path id="food-drink-cup-coffee-tea-drink-outline-stroke" d="M581.4,543.428c.041-2.427.018-4.792-.059-7.051-.027-.763-.063-4.463-.063-4.463h0c0-7.982-12.973-12.414-29.545-12.414s-29.545,4.432-29.545,12.414c0,0-.036,3.7-.064,4.463a128.437,128.437,0,0,0,2.191,28.943c3.936,19.645,12.718,31.767,27.418,31.767,10.359,0,17.782-6.021,22.641-16.455,13.182-.329,28.3-16.243,23.75-30.345-1.832-5.68-5.177-8.46-9.341-8.69a14.512,14.512,0,0,0-7.009,1.645c-.128.062-.25.124-.373.186Zm-.3,6.927a116.463,116.463,0,0,1-1.955,14.965,80.291,80.291,0,0,1-2.254,8.8c9.732-2,19.655-13.314,17.068-21.327-1.091-3.389-2.855-4.848-5.364-4.99a11.166,11.166,0,0,0-5.309,1.3,15.881,15.881,0,0,0-2.186,1.26Zm-4.245-11.365a119.126,119.126,0,0,1-2.091,24.691c-3.45,17.212-10.686,27.2-23.036,27.2s-19.586-9.987-23.036-27.2A119.155,119.155,0,0,1,526.6,538.99c5.168,3.482,14.391,5.338,25.127,5.338s19.959-1.856,25.127-5.338Zm-50.127-7.076c0-2.3,11.445-6.207,25-6.207s25,3.91,25,6.207-11.446,6.207-25,6.207S526.727,534.211,526.727,531.914Zm-20.455,71.379s-2.273,0-2.273,3.1,2.273,3.1,2.273,3.1h95.455s2.273,0,2.273-3.1-2.273-3.1-2.273-3.1Z" transform="translate(-504 -519.5)" fill="#fcfcfc" fill-rule="evenodd"/>
    </g>
  </g>
</svg>
