<svg xmlns="http://www.w3.org/2000/svg" width="1751.161" height="2016.127" viewBox="0 0 1751.161 2016.127">
  <path id="Right-design" d="M-946.17,3730.263c22.908-215.669,34.6-363.2,65.385-487.781q4.893-19.8,10.483-38.932c101.862-347.973,238.834-370.541,349.732-295.784,87.266,58.826,158.379,177.754,183.8,245.732,70.023,187.265,280.094-629.89,405.4-629.89s191.643,749.06,409.085,357.507c73.93-133.128,95.665-157.825,143.756-127.427,4.862,3.073,31.566,31.508,58.287,89.275,28.379,61.35,59.809,203.982,59.809,203.982" transform="matrix(0.375, -0.927, 0.927, 0.375, -1984.756, -259.009)" fill="#222a36" stroke="#707070" stroke-width="1"/>
</svg>
