<svg xmlns="http://www.w3.org/2000/svg" width="101.728" height="101.59" viewBox="0 0 101.728 101.59">
  <g id="Supervisor" transform="translate(1.743) rotate(1)">
    <path id="Path_4" data-name="Path 4" d="M0,0H100V99.86H0Z" fill="none"/>
    <path id="Path_5" data-name="Path 5" d="M72.692,50.783c6.728,0,12.139-7.325,12.139-16.351S79.42,18.081,72.692,18.081,60.5,25.406,60.5,34.432,65.964,50.783,72.692,50.783Zm-36.565-6.54c8.093,0,14.577-8.764,14.577-19.621S44.22,5,36.127,5,21.5,13.764,21.5,24.621,28.034,44.243,36.127,44.243ZM72.692,63.864c-8.922,0-26.814,6.017-26.814,17.986V96.566H99.506V81.85C99.506,69.881,81.614,63.864,72.692,63.864Zm-36.565-6.54C24.768,57.323,2,64.976,2,80.215V96.566H36.127V81.85a27.637,27.637,0,0,1,11.554-22.7A45.429,45.429,0,0,0,36.127,57.323Z" transform="translate(-0.753 -0.853)" fill="#393939"/>
  </g>
</svg>
